<mxfile host="Electron" agent="Mozilla/5.0 (Windows NT 10.0; Win64; x64) AppleWebKit/537.36 (KHTML, like Gecko) draw.io/24.7.5 Chrome/126.0.6478.183 Electron/31.3.0 Safari/537.36" version="24.7.5">
  <diagram name="Page-1" id="puzI0FXowAsjifbmADCD">
    <mxGraphModel dx="3457" dy="1520" grid="1" gridSize="10" guides="1" tooltips="1" connect="1" arrows="1" fold="1" page="1" pageScale="1" pageWidth="850" pageHeight="1100" math="0" shadow="0">
      <root>
        <mxCell id="0" />
        <mxCell id="1" parent="0" />
        <mxCell id="cfDpr1Wc2zbdmYrkfTOq-1" value="automated clicker" style="rounded=0;whiteSpace=wrap;html=1;" vertex="1" parent="1">
          <mxGeometry x="280" y="250" width="120" height="60" as="geometry" />
        </mxCell>
        <mxCell id="cfDpr1Wc2zbdmYrkfTOq-3" style="edgeStyle=orthogonalEdgeStyle;rounded=0;orthogonalLoop=1;jettySize=auto;html=1;" edge="1" parent="1" source="cfDpr1Wc2zbdmYrkfTOq-2" target="cfDpr1Wc2zbdmYrkfTOq-1">
          <mxGeometry relative="1" as="geometry" />
        </mxCell>
        <mxCell id="cfDpr1Wc2zbdmYrkfTOq-2" value="test.magdata" style="shape=note;whiteSpace=wrap;html=1;backgroundOutline=1;darkOpacity=0.05;" vertex="1" parent="1">
          <mxGeometry x="140" y="230" width="90" height="100" as="geometry" />
        </mxCell>
        <mxCell id="cfDpr1Wc2zbdmYrkfTOq-8" style="edgeStyle=orthogonalEdgeStyle;rounded=0;orthogonalLoop=1;jettySize=auto;html=1;exitX=0.5;exitY=1;exitDx=0;exitDy=0;exitPerimeter=0;entryX=0.5;entryY=0;entryDx=0;entryDy=0;" edge="1" parent="1" source="cfDpr1Wc2zbdmYrkfTOq-4" target="cfDpr1Wc2zbdmYrkfTOq-6">
          <mxGeometry relative="1" as="geometry">
            <mxPoint x="340" y="410" as="targetPoint" />
          </mxGeometry>
        </mxCell>
        <mxCell id="cfDpr1Wc2zbdmYrkfTOq-4" value="test_10Hz.csv" style="shape=note;whiteSpace=wrap;html=1;backgroundOutline=1;darkOpacity=0.05;" vertex="1" parent="1">
          <mxGeometry x="450" y="230" width="110" height="100" as="geometry" />
        </mxCell>
        <mxCell id="cfDpr1Wc2zbdmYrkfTOq-5" style="edgeStyle=orthogonalEdgeStyle;rounded=0;orthogonalLoop=1;jettySize=auto;html=1;exitX=1;exitY=0.5;exitDx=0;exitDy=0;entryX=0;entryY=0.5;entryDx=0;entryDy=0;entryPerimeter=0;" edge="1" parent="1" source="cfDpr1Wc2zbdmYrkfTOq-1" target="cfDpr1Wc2zbdmYrkfTOq-4">
          <mxGeometry relative="1" as="geometry" />
        </mxCell>
        <mxCell id="cfDpr1Wc2zbdmYrkfTOq-6" value="" style="shape=process;whiteSpace=wrap;html=1;backgroundOutline=1;" vertex="1" parent="1">
          <mxGeometry x="250" y="450" width="120" height="60" as="geometry" />
        </mxCell>
        <mxCell id="cfDpr1Wc2zbdmYrkfTOq-10" value="&quot;raw&quot;" style="text;html=1;align=center;verticalAlign=middle;whiteSpace=wrap;rounded=0;" vertex="1" parent="1">
          <mxGeometry x="470" y="190" width="60" height="30" as="geometry" />
        </mxCell>
        <mxCell id="cfDpr1Wc2zbdmYrkfTOq-11" value="Actor" style="shape=umlActor;verticalLabelPosition=bottom;verticalAlign=top;html=1;outlineConnect=0;" vertex="1" parent="1">
          <mxGeometry x="640" y="420" width="30" height="60" as="geometry" />
        </mxCell>
        <mxCell id="cfDpr1Wc2zbdmYrkfTOq-12" value="LARRGE ~x100" style="text;html=1;align=center;verticalAlign=middle;whiteSpace=wrap;rounded=0;" vertex="1" parent="1">
          <mxGeometry x="140" y="180" width="60" height="30" as="geometry" />
        </mxCell>
        <mxCell id="cfDpr1Wc2zbdmYrkfTOq-13" value="test_10Hz.csv" style="shape=note;whiteSpace=wrap;html=1;backgroundOutline=1;darkOpacity=0.05;" vertex="1" parent="1">
          <mxGeometry x="140" y="590" width="110" height="80" as="geometry" />
        </mxCell>
        <mxCell id="cfDpr1Wc2zbdmYrkfTOq-14" value="test_10Hz.pdf" style="shape=note;whiteSpace=wrap;html=1;backgroundOutline=1;darkOpacity=0.05;" vertex="1" parent="1">
          <mxGeometry x="370" y="590" width="110" height="100" as="geometry" />
        </mxCell>
        <mxCell id="cfDpr1Wc2zbdmYrkfTOq-15" value="&quot;clean&quot;" style="text;html=1;align=center;verticalAlign=middle;whiteSpace=wrap;rounded=0;" vertex="1" parent="1">
          <mxGeometry x="140" y="543.72" width="60" height="30" as="geometry" />
        </mxCell>
        <mxCell id="cfDpr1Wc2zbdmYrkfTOq-16" value="raw size x ~50%" style="text;html=1;align=center;verticalAlign=middle;whiteSpace=wrap;rounded=0;" vertex="1" parent="1">
          <mxGeometry x="30" y="620" width="100" height="30" as="geometry" />
        </mxCell>
        <mxCell id="cfDpr1Wc2zbdmYrkfTOq-18" style="edgeStyle=orthogonalEdgeStyle;rounded=0;orthogonalLoop=1;jettySize=auto;html=1;exitX=0;exitY=0;exitDx=80;exitDy=65;exitPerimeter=0;" edge="1" parent="1" source="cfDpr1Wc2zbdmYrkfTOq-21" target="cfDpr1Wc2zbdmYrkfTOq-6">
          <mxGeometry relative="1" as="geometry">
            <mxPoint x="70" y="440" as="sourcePoint" />
          </mxGeometry>
        </mxCell>
        <mxCell id="cfDpr1Wc2zbdmYrkfTOq-20" value="" style="endArrow=none;dashed=1;html=1;dashPattern=1 3;strokeWidth=2;rounded=0;entryX=0;entryY=0.75;entryDx=0;entryDy=0;" edge="1" parent="1" source="cfDpr1Wc2zbdmYrkfTOq-24" target="cfDpr1Wc2zbdmYrkfTOq-6">
          <mxGeometry width="50" height="50" relative="1" as="geometry">
            <mxPoint x="72.03999999999996" y="532.02" as="sourcePoint" />
            <mxPoint x="430" y="500" as="targetPoint" />
          </mxGeometry>
        </mxCell>
        <mxCell id="cfDpr1Wc2zbdmYrkfTOq-21" value="Lines for QaQc" style="shape=note;whiteSpace=wrap;html=1;backgroundOutline=1;darkOpacity=0.05;" vertex="1" parent="1">
          <mxGeometry x="-130" y="360" width="80" height="100" as="geometry" />
        </mxCell>
        <mxCell id="cfDpr1Wc2zbdmYrkfTOq-24" value="&lt;span style=&quot;color: rgb(0, 0, 0); text-wrap: wrap;&quot;&gt;2D flgihts Foldler&lt;/span&gt;" style="sketch=0;outlineConnect=0;fontColor=#232F3E;gradientColor=none;fillColor=#232F3D;strokeColor=none;dashed=0;verticalLabelPosition=bottom;verticalAlign=top;align=center;html=1;fontSize=12;fontStyle=0;aspect=fixed;pointerEvents=1;shape=mxgraph.aws4.folder;" vertex="1" parent="1">
          <mxGeometry x="-130" y="510" width="70" height="63.72" as="geometry" />
        </mxCell>
        <mxCell id="cfDpr1Wc2zbdmYrkfTOq-25" style="edgeStyle=orthogonalEdgeStyle;rounded=0;orthogonalLoop=1;jettySize=auto;html=1;exitX=0.25;exitY=1;exitDx=0;exitDy=0;entryX=0;entryY=0;entryDx=80;entryDy=0;entryPerimeter=0;" edge="1" parent="1" source="cfDpr1Wc2zbdmYrkfTOq-6" target="cfDpr1Wc2zbdmYrkfTOq-13">
          <mxGeometry relative="1" as="geometry" />
        </mxCell>
        <mxCell id="cfDpr1Wc2zbdmYrkfTOq-26" style="edgeStyle=orthogonalEdgeStyle;rounded=0;orthogonalLoop=1;jettySize=auto;html=1;exitX=0.75;exitY=1;exitDx=0;exitDy=0;entryX=0;entryY=0;entryDx=40;entryDy=0;entryPerimeter=0;" edge="1" parent="1" source="cfDpr1Wc2zbdmYrkfTOq-6" target="cfDpr1Wc2zbdmYrkfTOq-14">
          <mxGeometry relative="1" as="geometry" />
        </mxCell>
        <mxCell id="cfDpr1Wc2zbdmYrkfTOq-27" value="tof5_flt_2_test.csv" style="shape=note;whiteSpace=wrap;html=1;backgroundOutline=1;darkOpacity=0.05;" vertex="1" parent="1">
          <mxGeometry x="140" y="750" width="110" height="80" as="geometry" />
        </mxCell>
        <mxCell id="cfDpr1Wc2zbdmYrkfTOq-28" value="or is 2D flight are present" style="text;html=1;align=center;verticalAlign=middle;whiteSpace=wrap;rounded=0;" vertex="1" parent="1">
          <mxGeometry x="155" y="700" width="60" height="30" as="geometry" />
        </mxCell>
        <mxCell id="cfDpr1Wc2zbdmYrkfTOq-29" value="tof5_flt_2_test.pdf" style="shape=note;whiteSpace=wrap;html=1;backgroundOutline=1;darkOpacity=0.05;" vertex="1" parent="1">
          <mxGeometry x="370" y="750" width="110" height="80" as="geometry" />
        </mxCell>
        <mxCell id="cfDpr1Wc2zbdmYrkfTOq-30" value="or is 2D flight are present" style="text;html=1;align=center;verticalAlign=middle;whiteSpace=wrap;rounded=0;" vertex="1" parent="1">
          <mxGeometry x="395" y="700" width="60" height="30" as="geometry" />
        </mxCell>
        <mxCell id="cfDpr1Wc2zbdmYrkfTOq-31" value="test.magdata" style="shape=note;whiteSpace=wrap;html=1;backgroundOutline=1;darkOpacity=0.05;" vertex="1" parent="1">
          <mxGeometry x="270" y="1120" width="90" height="100" as="geometry" />
        </mxCell>
        <mxCell id="cfDpr1Wc2zbdmYrkfTOq-32" value="test_10Hz.csv" style="shape=note;whiteSpace=wrap;html=1;backgroundOutline=1;darkOpacity=0.05;" vertex="1" parent="1">
          <mxGeometry x="100" y="1120" width="110" height="100" as="geometry" />
        </mxCell>
        <mxCell id="cfDpr1Wc2zbdmYrkfTOq-33" value="" style="endArrow=none;dashed=1;html=1;dashPattern=1 3;strokeWidth=2;rounded=0;exitX=0;exitY=0.5;exitDx=0;exitDy=0;exitPerimeter=0;entryX=0.982;entryY=0.5;entryDx=0;entryDy=0;entryPerimeter=0;" edge="1" parent="1" source="cfDpr1Wc2zbdmYrkfTOq-31" target="cfDpr1Wc2zbdmYrkfTOq-32">
          <mxGeometry width="50" height="50" relative="1" as="geometry">
            <mxPoint x="380" y="990" as="sourcePoint" />
            <mxPoint x="430" y="940" as="targetPoint" />
          </mxGeometry>
        </mxCell>
        <mxCell id="cfDpr1Wc2zbdmYrkfTOq-34" value="&lt;span style=&quot;color: rgb(0, 0, 0); text-wrap: wrap;&quot;&gt;clean&lt;/span&gt;" style="sketch=0;outlineConnect=0;fontColor=#232F3E;gradientColor=none;fillColor=#232F3D;strokeColor=none;dashed=0;verticalLabelPosition=bottom;verticalAlign=top;align=center;html=1;fontSize=12;fontStyle=0;aspect=fixed;pointerEvents=1;shape=mxgraph.aws4.folder;" vertex="1" parent="1">
          <mxGeometry x="420" y="1138.1399999999999" width="70" height="63.72" as="geometry" />
        </mxCell>
        <mxCell id="cfDpr1Wc2zbdmYrkfTOq-35" value="QaQc report" style="sketch=0;outlineConnect=0;fontColor=#232F3E;gradientColor=none;fillColor=#232F3D;strokeColor=none;dashed=0;verticalLabelPosition=bottom;verticalAlign=top;align=center;html=1;fontSize=12;fontStyle=0;aspect=fixed;pointerEvents=1;shape=mxgraph.aws4.folder;" vertex="1" parent="1">
          <mxGeometry x="530" y="1138.1399999999999" width="70" height="63.72" as="geometry" />
        </mxCell>
        <mxCell id="cfDpr1Wc2zbdmYrkfTOq-37" value="tof5_flt_2_test.pdf" style="shape=note;whiteSpace=wrap;html=1;backgroundOutline=1;darkOpacity=0.05;" vertex="1" parent="1">
          <mxGeometry x="520" y="1250" width="110" height="80" as="geometry" />
        </mxCell>
        <mxCell id="cfDpr1Wc2zbdmYrkfTOq-38" value="tof5_flt_2_test.pdf" style="shape=note;whiteSpace=wrap;html=1;backgroundOutline=1;darkOpacity=0.05;" vertex="1" parent="1">
          <mxGeometry x="520" y="1350" width="110" height="80" as="geometry" />
        </mxCell>
        <mxCell id="cfDpr1Wc2zbdmYrkfTOq-39" value="tof5_flt_2_test.csv" style="shape=note;whiteSpace=wrap;html=1;backgroundOutline=1;darkOpacity=0.05;" vertex="1" parent="1">
          <mxGeometry x="400" y="1250" width="110" height="80" as="geometry" />
        </mxCell>
        <mxCell id="cfDpr1Wc2zbdmYrkfTOq-40" value="tof5_flt_2_test.csv" style="shape=note;whiteSpace=wrap;html=1;backgroundOutline=1;darkOpacity=0.05;" vertex="1" parent="1">
          <mxGeometry x="400" y="1350" width="110" height="80" as="geometry" />
        </mxCell>
        <mxCell id="cfDpr1Wc2zbdmYrkfTOq-41" value="test.magdata" style="shape=note;whiteSpace=wrap;html=1;backgroundOutline=1;darkOpacity=0.05;" vertex="1" parent="1">
          <mxGeometry x="-50" y="1120" width="90" height="100" as="geometry" />
        </mxCell>
        <mxCell id="cfDpr1Wc2zbdmYrkfTOq-42" value="test_10Hz.csv" style="shape=note;whiteSpace=wrap;html=1;backgroundOutline=1;darkOpacity=0.05;" vertex="1" parent="1">
          <mxGeometry x="-220" y="1120" width="110" height="100" as="geometry" />
        </mxCell>
        <mxCell id="cfDpr1Wc2zbdmYrkfTOq-43" value="" style="endArrow=none;dashed=1;html=1;dashPattern=1 3;strokeWidth=2;rounded=0;exitX=0;exitY=0.5;exitDx=0;exitDy=0;exitPerimeter=0;entryX=0.982;entryY=0.5;entryDx=0;entryDy=0;entryPerimeter=0;" edge="1" parent="1" source="cfDpr1Wc2zbdmYrkfTOq-41" target="cfDpr1Wc2zbdmYrkfTOq-42">
          <mxGeometry width="50" height="50" relative="1" as="geometry">
            <mxPoint x="60" y="990" as="sourcePoint" />
            <mxPoint x="110" y="940" as="targetPoint" />
          </mxGeometry>
        </mxCell>
        <mxCell id="cfDpr1Wc2zbdmYrkfTOq-47" value="current Folder tree structure" style="text;html=1;align=center;verticalAlign=middle;whiteSpace=wrap;rounded=0;" vertex="1" parent="1">
          <mxGeometry x="75" y="1030" width="135" height="30" as="geometry" />
        </mxCell>
        <mxCell id="cfDpr1Wc2zbdmYrkfTOq-53" value="&lt;ul&gt;&lt;li&gt;magdata processed or not&amp;nbsp;&lt;br&gt;&lt;/li&gt;&lt;li&gt;clean and pdf need to be easy to extract and send to me&lt;br&gt;&lt;/li&gt;&lt;li&gt;raw vs clean .csv needs to be clear&lt;br&gt;&lt;/li&gt;&lt;li&gt;the app can load either .magdata or .raw csv&lt;/li&gt;&lt;/ul&gt;" style="text;html=1;align=left;verticalAlign=middle;whiteSpace=wrap;rounded=0;" vertex="1" parent="1">
          <mxGeometry x="-130" y="1310" width="380" height="90" as="geometry" />
        </mxCell>
        <mxCell id="cfDpr1Wc2zbdmYrkfTOq-54" value="✅test.magdata" style="shape=note;whiteSpace=wrap;html=1;backgroundOutline=1;darkOpacity=0.05;" vertex="1" parent="1">
          <mxGeometry x="20" y="1530" width="90" height="100" as="geometry" />
        </mxCell>
        <mxCell id="cfDpr1Wc2zbdmYrkfTOq-55" value="&lt;span style=&quot;color: rgb(0, 0, 0); text-wrap: wrap;&quot;&gt;clean&lt;/span&gt;" style="sketch=0;outlineConnect=0;fontColor=#232F3E;gradientColor=none;fillColor=#232F3D;strokeColor=none;dashed=0;verticalLabelPosition=bottom;verticalAlign=top;align=center;html=1;fontSize=12;fontStyle=0;aspect=fixed;pointerEvents=1;shape=mxgraph.aws4.folder;" vertex="1" parent="1">
          <mxGeometry x="260" y="1548.14" width="70" height="63.72" as="geometry" />
        </mxCell>
        <mxCell id="cfDpr1Wc2zbdmYrkfTOq-56" value="QaQc report" style="sketch=0;outlineConnect=0;fontColor=#232F3E;gradientColor=none;fillColor=#232F3D;strokeColor=none;dashed=0;verticalLabelPosition=bottom;verticalAlign=top;align=center;html=1;fontSize=12;fontStyle=0;aspect=fixed;pointerEvents=1;shape=mxgraph.aws4.folder;" vertex="1" parent="1">
          <mxGeometry x="370" y="1548.14" width="70" height="63.72" as="geometry" />
        </mxCell>
        <mxCell id="cfDpr1Wc2zbdmYrkfTOq-57" value="&lt;span style=&quot;color: rgb(0, 0, 0); text-wrap: wrap;&quot;&gt;raw&lt;/span&gt;" style="sketch=0;outlineConnect=0;fontColor=#232F3E;gradientColor=none;fillColor=#232F3D;strokeColor=none;dashed=0;verticalLabelPosition=bottom;verticalAlign=top;align=center;html=1;fontSize=12;fontStyle=0;aspect=fixed;pointerEvents=1;shape=mxgraph.aws4.folder;" vertex="1" parent="1">
          <mxGeometry x="150" y="1548.14" width="70" height="63.72" as="geometry" />
        </mxCell>
        <mxCell id="cfDpr1Wc2zbdmYrkfTOq-58" value="&lt;font style=&quot;font-size: 15px;&quot;&gt;Reqirements:&lt;/font&gt;" style="text;html=1;align=center;verticalAlign=middle;whiteSpace=wrap;rounded=0;" vertex="1" parent="1">
          <mxGeometry x="-50" y="1280" width="150" height="30" as="geometry" />
        </mxCell>
        <mxCell id="cfDpr1Wc2zbdmYrkfTOq-59" value="&lt;span style=&quot;color: rgb(0, 0, 0); text-wrap: wrap;&quot;&gt;raw&lt;/span&gt;" style="sketch=0;outlineConnect=0;fontColor=#232F3E;gradientColor=none;fillColor=#232F3D;strokeColor=none;dashed=0;verticalLabelPosition=bottom;verticalAlign=top;align=center;html=1;fontSize=12;fontStyle=0;aspect=fixed;pointerEvents=1;shape=mxgraph.aws4.folder;" vertex="1" parent="1">
          <mxGeometry x="150" y="1730" width="70" height="63.72" as="geometry" />
        </mxCell>
        <mxCell id="cfDpr1Wc2zbdmYrkfTOq-60" value="&lt;span style=&quot;color: rgb(0, 0, 0); text-wrap: wrap;&quot;&gt;clean&lt;/span&gt;" style="sketch=0;outlineConnect=0;fontColor=#232F3E;gradientColor=none;fillColor=#232F3D;strokeColor=none;dashed=0;verticalLabelPosition=bottom;verticalAlign=top;align=center;html=1;fontSize=12;fontStyle=0;aspect=fixed;pointerEvents=1;shape=mxgraph.aws4.folder;" vertex="1" parent="1">
          <mxGeometry x="260" y="1730" width="70" height="63.72" as="geometry" />
        </mxCell>
        <mxCell id="cfDpr1Wc2zbdmYrkfTOq-61" value="QaQc report" style="sketch=0;outlineConnect=0;fontColor=#232F3E;gradientColor=none;fillColor=#232F3D;strokeColor=none;dashed=0;verticalLabelPosition=bottom;verticalAlign=top;align=center;html=1;fontSize=12;fontStyle=0;aspect=fixed;pointerEvents=1;shape=mxgraph.aws4.folder;" vertex="1" parent="1">
          <mxGeometry x="370" y="1730" width="70" height="63.72" as="geometry" />
        </mxCell>
        <mxCell id="cfDpr1Wc2zbdmYrkfTOq-62" value="&lt;h1 style=&quot;margin-top: 0px;&quot;&gt;a lil extra while you are at it&lt;/h1&gt;&lt;div&gt;plop settings json into the last pdf page so i can see what settings they used to get the data&lt;/div&gt;" style="text;html=1;whiteSpace=wrap;overflow=hidden;rounded=0;" vertex="1" parent="1">
          <mxGeometry x="-70" y="1940" width="370" height="120" as="geometry" />
        </mxCell>
      </root>
    </mxGraphModel>
  </diagram>
</mxfile>
